<?xml version="1.0" encoding="utf-8"?>
<svg version="1.1" id="Layer_1" x="0px" y="0px" viewBox="0 0 512 512" style="enable-background:new 0 0 512 512;" xmlns="http://www.w3.org/2000/svg">
  <path id="SVGCleanerId_0" style="fill:#FFC36E;" d="M183.295,123.586H55.05c-6.687,0-12.801-3.778-15.791-9.76l-12.776-25.55 l12.776-25.55c2.99-5.982,9.103-9.76,15.791-9.76h128.246c6.687,0,12.801,3.778,15.791,9.76l12.775,25.55l-12.776,25.55 C196.096,119.808,189.983,123.586,183.295,123.586z"/>
  <g>
    <path id="SVGCleanerId_0_1_" style="fill:#FFC36E;" d="M183.295,123.586H55.05c-6.687,0-12.801-3.778-15.791-9.76l-12.776-25.55 l12.776-25.55c2.99-5.982,9.103-9.76,15.791-9.76h128.246c6.687,0,12.801,3.778,15.791,9.76l12.775,25.55l-12.776,25.55 C196.096,119.808,189.983,123.586,183.295,123.586z"/>
  </g>
  <path style="fill:#EFF2FA;" d="M485.517,70.621H26.483c-4.875,0-8.828,3.953-8.828,8.828v44.138h476.69V79.448 C494.345,74.573,490.392,70.621,485.517,70.621z"/>
  <rect x="17.655" y="105.931" style="fill:#E1E6F2;" width="476.69" height="17.655"/>
  <path style="fill:#FFD782;" d="M494.345,88.276H217.318c-3.343,0-6.4,1.889-7.895,4.879l-10.336,20.671 c-2.99,5.982-9.105,9.76-15.791,9.76H55.05c-6.687,0-12.801-3.778-15.791-9.76L28.922,93.155c-1.495-2.99-4.552-4.879-7.895-4.879 h-3.372C7.904,88.276,0,96.18,0,105.931v335.448c0,9.751,7.904,17.655,17.655,17.655h476.69c9.751,0,17.655-7.904,17.655-17.655 V105.931C512,96.18,504.096,88.276,494.345,88.276z"/>
  <path style="fill:#FFC36E;" d="M485.517,441.379H26.483c-4.875,0-8.828-3.953-8.828-8.828l0,0c0-4.875,3.953-8.828,8.828-8.828 h459.034c4.875,0,8.828,3.953,8.828,8.828l0,0C494.345,437.427,490.392,441.379,485.517,441.379z"/>
  <path style="fill:#EFF2FA;" d="M326.621,220.69h132.414c4.875,0,8.828-3.953,8.828-8.828v-70.621c0-4.875-3.953-8.828-8.828-8.828 H326.621c-4.875,0-8.828,3.953-8.828,8.828v70.621C317.793,216.737,321.746,220.69,326.621,220.69z"/>
  <path style="fill:#C7CFE2;" d="M441.379,167.724h-97.103c-4.875,0-8.828-3.953-8.828-8.828l0,0c0-4.875,3.953-8.828,8.828-8.828 h97.103c4.875,0,8.828,3.953,8.828,8.828l0,0C450.207,163.772,446.254,167.724,441.379,167.724z"/>
  <path style="fill:#D7DEED;" d="M441.379,203.034h-97.103c-4.875,0-8.828-3.953-8.828-8.828l0,0c0-4.875,3.953-8.828,8.828-8.828 h97.103c4.875,0,8.828,3.953,8.828,8.828l0,0C450.207,199.082,446.254,203.034,441.379,203.034z"/>
  <g/>
  <g/>
  <g/>
  <g/>
  <g/>
  <g/>
  <g/>
  <g/>
  <g/>
  <g/>
  <g/>
  <g/>
  <g/>
  <g/>
  <g/>
  <linearGradient gradientUnits="userSpaceOnUse" id="SVGID_1_" x1="189.4046" x2="266.0534" y1="243.0769" y2="243.0769" gradientTransform="matrix(1.608308, 0, 0, 1.608308, -126.009017, -93.114557)">
    <stop offset="0.5" style="stop-color:#FFFFFF"/>
    <stop offset="0.5" style="stop-color:#EBEBEB"/>
  </linearGradient>
  <path d="M 240.256 414.447 C 175.85 414.447 123.649 362.232 123.649 297.826 C 123.649 233.426 175.85 181.22 240.256 181.22 C 304.656 181.22 356.857 233.424 356.857 297.826 C 356.857 362.232 304.656 414.447 240.256 414.447 Z" style="fill: rgb(168, 182, 192);"/>
  <g transform="matrix(1.608308, 0, 0, 1.608308, -126.009018, -93.114555)" style="">
    <path d="M228.421,198.458c1.718,0,3.107-1.391,3.107-3.1v-15.891c0-1.716-1.389-3.107-3.107-3.107      c-1.718,0-3.107,1.391-3.107,3.107v15.891C225.314,197.067,226.703,198.458,228.421,198.458z" style="fill:#F7F7F7;"/>
    <path d="M194.003,189.635c-1.008-1.389-2.953-1.693-4.346-0.682c-1.389,1.004-1.697,2.949-0.684,4.335      l9.338,12.855c0.607,0.84,1.556,1.284,2.521,1.284c0.632,0,1.265-0.19,1.82-0.59c1.393-1.01,1.697-2.955,0.684-4.342      L194.003,189.635z" style="fill:#F7F7F7;"/>
    <path d="M184.729,224.84l-15.107-4.917c-1.632-0.521-3.389,0.374-3.919,1.996      c-0.534,1.637,0.359,3.393,1.992,3.921l15.115,4.908c0.321,0.105,0.645,0.151,0.966,0.151c1.312,0,2.53-0.833,2.949-2.145      C187.251,227.124,186.366,225.366,184.729,224.84z" style="fill:#F7F7F7;"/>
    <path d="M182.81,253.853l-15.115,4.912c-1.624,0.53-2.525,2.289-1.992,3.915      c0.428,1.308,1.641,2.15,2.953,2.15c0.325,0,0.645-0.049,0.966-0.152l15.107-4.908c1.637-0.53,2.521-2.288,1.995-3.917      C186.199,254.218,184.443,253.321,182.81,253.853z" style="fill:#F7F7F7;"/>
    <path d="M198.31,278.455l-9.338,12.857c-1.013,1.387-0.697,3.329,0.684,4.342      c0.56,0.397,1.192,0.588,1.825,0.588c0.961,0,1.915-0.44,2.521-1.28l9.333-12.848c1.013-1.389,0.71-3.342-0.684-4.344      C201.263,276.758,199.319,277.068,198.31,278.455z" style="fill:#F7F7F7;"/>
    <path d="M228.421,286.143c-1.714,0-3.107,1.391-3.107,3.107v15.891c0,1.716,1.393,3.1,3.107,3.1      c1.718,0,3.111-1.385,3.111-3.1l-0.004-15.891C231.528,287.534,230.139,286.143,228.421,286.143z" style="fill:#F7F7F7;"/>
    <path d="M258.528,278.455c-1.008-1.387-2.949-1.697-4.338-0.686c-1.385,1.011-1.701,2.949-0.684,4.344      l9.338,12.855c0.607,0.833,1.555,1.273,2.517,1.273c0.632,0,1.273-0.19,1.82-0.588c1.393-1.015,1.701-2.955,0.692-4.342      L258.528,278.455z" style="fill:#F7F7F7;"/>
    <path d="M289.134,258.765l-15.103-4.912c-1.632-0.532-3.393,0.365-3.919,1.993      c-0.517,1.628,0.363,3.385,1.992,3.917l15.12,4.914c0.316,0.102,0.641,0.143,0.957,0.143c1.308,0,2.526-0.833,2.949-2.141      C291.66,261.045,290.775,259.289,289.134,258.765z" style="fill:#F7F7F7;"/>
    <path d="M273.07,230.9c0.32,0,0.645-0.047,0.961-0.151l15.103-4.908c1.641-0.534,2.525-2.284,1.995-3.93      c-0.529-1.628-2.273-2.515-3.906-1.987l-15.12,4.908c-1.628,0.53-2.509,2.289-1.992,3.917      C270.541,230.06,271.758,230.9,273.07,230.9z" style="fill:#F7F7F7;"/>
    <path d="M256.011,207.421c0.961,0,1.906-0.438,2.517-1.278l9.338-12.855      c1.017-1.387,0.701-3.331-0.692-4.335c-1.389-1.011-3.321-0.701-4.329,0.686l-9.338,12.857      c-1.009,1.387-0.701,3.325,0.684,4.342C254.737,207.231,255.378,207.421,256.011,207.421z" style="fill:#F7F7F7;"/>
  </g>
  <polygon points="252.421 239.614 290.752 227.948 288.705 267.954" style="fill: rgb(89, 97, 106);"/>
  <path d="M 240.256 236.198 C 206.215 236.198 178.613 263.787 178.613 297.826 C 178.613 331.872 206.215 359.459 240.256 359.459 C 274.291 359.459 301.887 331.87 301.887 297.826 C 301.887 263.786 274.291 236.198 240.256 236.198 Z" style="fill: url(#SVGID_1_);"/>
</svg>